<svg width="40" height="40" viewBox="0 0 40 40" fill="none" xmlns="http://www.w3.org/2000/svg">
<path d="M0 19.9929C0 8.95112 8.95112 0 19.9929 0C31.0346 0 39.9858 8.95112 39.9858 19.9929C39.9858 31.0346 31.0346 39.9858 19.9929 39.9858C8.95112 39.9858 0 31.0346 0 19.9929Z" fill="#51A8FF" fill-opacity="0.1"/>
<path d="M15.9932 9.99365V13.9937" stroke="#51A8FF" stroke-width="1.99985" stroke-linecap="round" stroke-linejoin="round"/>
<path d="M23.9932 9.99365V13.9937" stroke="#51A8FF" stroke-width="1.99985" stroke-linecap="round" stroke-linejoin="round"/>
<path d="M26.993 11.9935H12.994C11.8895 11.9935 10.9941 12.8889 10.9941 13.9934V27.9923C10.9941 29.0968 11.8895 29.9922 12.994 29.9922H26.993C28.0974 29.9922 28.9928 29.0968 28.9928 27.9923V13.9934C28.9928 12.8889 28.0974 11.9935 26.993 11.9935Z" stroke="#51A8FF" stroke-width="1.99985" stroke-linecap="round" stroke-linejoin="round"/>
<path d="M10.9941 17.993H28.9928" stroke="#51A8FF" stroke-width="1.99985" stroke-linecap="round" stroke-linejoin="round"/>
</svg>
